<?xml version='1.0' encoding='UTF-8' standalone='no'?>
<svg height="813pt" viewBox="0 0 1438 813" width="1438pt" xmlns="http://www.w3.org/2000/svg" xmlns:xlink="http://www.w3.org/1999/xlink">
 <title>Figure 4</title>
 <desc>
Creator: GL2PS 1.4.2, (C) 1999-2020 C. Geuzaine
For: Octave
CreationDate: Thu Jun 12 14:04:13 2025
</desc>
 <defs/>
 <polygon fill="#ffffff" points="0,0 1438,0 1438,813 0,813"/>
 <g>
  <polygon fill="#ffffff" points="0,813 1438,813 1438,0 0,0" shape-rendering="crispEdges"/>
  <clipPath id="cp001438813">
   <polygon points="0,813 1438,813 1438,0 0,0"/>
  </clipPath>
  <g clip-path="url(#cp001438813)">
   <polygon fill="#ffffff" points="187.052,723.667 1302.17,723.667 1302.17,60.9832 187.052,60.9832" shape-rendering="crispEdges"/>
   <polyline fill="none" points="187.052,723.667 187.052,60.9832" stroke="#262626" stroke-dasharray="16,0" stroke-linecap="butt" stroke-linejoin="miter" stroke-opacity="0.15" stroke-width="0.5"/>
   <polyline fill="none" points="480.505,723.667 480.505,60.9832" stroke="#262626" stroke-dasharray="16,0" stroke-linecap="butt" stroke-linejoin="miter" stroke-opacity="0.15" stroke-width="0.5"/>
   <polyline fill="none" points="773.958,723.667 773.958,60.9832" stroke="#262626" stroke-dasharray="16,0" stroke-linecap="butt" stroke-linejoin="miter" stroke-opacity="0.15" stroke-width="0.5"/>
   <polyline fill="none" points="1067.41,723.667 1067.41,60.9832" stroke="#262626" stroke-dasharray="16,0" stroke-linecap="butt" stroke-linejoin="miter" stroke-opacity="0.15" stroke-width="0.5"/>
   <polyline fill="none" points="187.052,723.667 187.052,712.521" stroke="#262626" stroke-linecap="butt" stroke-linejoin="miter" stroke-width="0.5"/>
   <polyline fill="none" points="187.052,60.9832 187.052,72.129" stroke="#262626" stroke-linecap="butt" stroke-linejoin="miter" stroke-width="0.5"/>
   <polyline fill="none" points="480.505,723.667 480.505,712.521" stroke="#262626" stroke-linecap="butt" stroke-linejoin="miter" stroke-width="0.5"/>
   <polyline fill="none" points="480.505,60.9832 480.505,72.129" stroke="#262626" stroke-linecap="butt" stroke-linejoin="miter" stroke-width="0.5"/>
   <polyline fill="none" points="773.958,723.667 773.958,712.521" stroke="#262626" stroke-linecap="butt" stroke-linejoin="miter" stroke-width="0.5"/>
   <polyline fill="none" points="773.958,60.9832 773.958,72.129" stroke="#262626" stroke-linecap="butt" stroke-linejoin="miter" stroke-width="0.5"/>
   <polyline fill="none" points="1067.41,723.667 1067.41,712.521" stroke="#262626" stroke-linecap="butt" stroke-linejoin="miter" stroke-width="0.5"/>
   <polyline fill="none" points="1067.41,60.9832 1067.41,72.129" stroke="#262626" stroke-linecap="butt" stroke-linejoin="miter" stroke-width="0.5"/>
   <g font-family="FreeSans" font-size="16" font-style="normal" font-weight="normal" transform="translate(182.552,748.661) rotate(-0,4.5,-13)" xml:space="preserve">
    <text fill="rgb(38,38,38)" x="0 " y="-0">0</text>
   </g>
   <g font-family="FreeSans" font-size="16" font-style="normal" font-weight="normal" transform="translate(476.005,748.661) rotate(-0,4.5,-13)" xml:space="preserve">
    <text fill="rgb(38,38,38)" x="0 " y="-0">5</text>
   </g>
   <g font-family="FreeSans" font-size="16" font-style="normal" font-weight="normal" transform="translate(764.958,748.661) rotate(-0,9,-13)" xml:space="preserve">
    <text fill="rgb(38,38,38)" x="0 9 " y="-0">10</text>
   </g>
   <g font-family="FreeSans" font-size="16" font-style="normal" font-weight="normal" transform="translate(1058.41,748.661) rotate(-0,9,-13)" xml:space="preserve">
    <text fill="rgb(38,38,38)" x="0 9 " y="-0">15</text>
   </g>
   <polyline fill="none" points="187.052,650.035 1302.17,650.035" stroke="#262626" stroke-dasharray="16,0" stroke-linecap="butt" stroke-linejoin="miter" stroke-opacity="0.15" stroke-width="0.5"/>
   <polyline fill="none" points="187.052,465.956 1302.17,465.956" stroke="#262626" stroke-dasharray="16,0" stroke-linecap="butt" stroke-linejoin="miter" stroke-opacity="0.15" stroke-width="0.5"/>
   <polyline fill="none" points="187.052,281.878 1302.17,281.878" stroke="#262626" stroke-dasharray="16,0" stroke-linecap="butt" stroke-linejoin="miter" stroke-opacity="0.15" stroke-width="0.5"/>
   <polyline fill="none" points="187.052,97.7989 1302.17,97.7989" stroke="#262626" stroke-dasharray="16,0" stroke-linecap="butt" stroke-linejoin="miter" stroke-opacity="0.15" stroke-width="0.5"/>
   <polyline fill="none" points="187.052,650.035 198.205,650.035" stroke="#262626" stroke-linecap="butt" stroke-linejoin="miter" stroke-width="0.5"/>
   <polyline fill="none" points="1302.17,650.035 1291.02,650.035" stroke="#262626" stroke-linecap="butt" stroke-linejoin="miter" stroke-width="0.5"/>
   <polyline fill="none" points="187.052,465.956 198.205,465.956" stroke="#262626" stroke-linecap="butt" stroke-linejoin="miter" stroke-width="0.5"/>
   <polyline fill="none" points="1302.17,465.956 1291.02,465.956" stroke="#262626" stroke-linecap="butt" stroke-linejoin="miter" stroke-width="0.5"/>
   <polyline fill="none" points="187.052,281.878 198.205,281.878" stroke="#262626" stroke-linecap="butt" stroke-linejoin="miter" stroke-width="0.5"/>
   <polyline fill="none" points="1302.17,281.878 1291.02,281.878" stroke="#262626" stroke-linecap="butt" stroke-linejoin="miter" stroke-width="0.5"/>
   <polyline fill="none" points="187.052,97.7989 198.205,97.7989" stroke="#262626" stroke-linecap="butt" stroke-linejoin="miter" stroke-width="0.5"/>
   <polyline fill="none" points="1302.17,97.7989 1291.02,97.7989" stroke="#262626" stroke-linecap="butt" stroke-linejoin="miter" stroke-width="0.5"/>
   <g font-family="FreeSans" font-size="16" font-style="normal" font-weight="normal" transform="translate(152.052,656.535) rotate(-0,27,-6.5)" xml:space="preserve">
    <text fill="rgb(38,38,38)" x="0 5 14 18 " y="-0">-0.5</text>
   </g>
   <g font-family="FreeSans" font-size="16" font-style="normal" font-weight="normal" transform="translate(170.052,472.456) rotate(-0,9,-6.5)" xml:space="preserve">
    <text fill="rgb(38,38,38)" x="0 " y="-0">0</text>
   </g>
   <g font-family="FreeSans" font-size="16" font-style="normal" font-weight="normal" transform="translate(157.052,288.378) rotate(-0,22,-6.5)" xml:space="preserve">
    <text fill="rgb(38,38,38)" x="0 9 13 " y="-0">0.5</text>
   </g>
   <g font-family="FreeSans" font-size="16" font-style="normal" font-weight="normal" transform="translate(170.052,104.299) rotate(-0,9,-6.5)" xml:space="preserve">
    <text fill="rgb(38,38,38)" x="0 " y="-0">1</text>
   </g>
   <polyline fill="none" points="187.052,723.667 1302.17,723.667" stroke="#262626" stroke-dasharray="16,0" stroke-linecap="square" stroke-linejoin="miter" stroke-width="0.5"/>
   <polyline fill="none" points="187.052,60.9832 1302.17,60.9832" stroke="#262626" stroke-dasharray="16,0" stroke-linecap="square" stroke-linejoin="miter" stroke-width="0.5"/>
   <polyline fill="none" points="187.052,723.667 187.052,60.9832" stroke="#262626" stroke-dasharray="16,0" stroke-linecap="square" stroke-linejoin="miter" stroke-width="0.5"/>
   <polyline fill="none" points="1302.17,723.667 1302.17,60.9832" stroke="#262626" stroke-dasharray="16,0" stroke-linecap="square" stroke-linejoin="miter" stroke-width="0.5"/>
   <g font-family="FreeSans" font-size="17.6" font-style="normal" font-weight="normal" transform="translate(716.113,771.661) rotate(-0,28.5,-18)" xml:space="preserve">
    <text fill="rgb(38,38,38)" x="0 11 15 24 38 48 " y="-4">Tiempo</text>
   </g>
   <g font-family="FreeSans" font-size="17.6" font-style="normal" font-weight="bold" transform="translate(630.113,50.9832) rotate(-0,114.5,0)" xml:space="preserve">
    <text fill="rgb(0,0,0)" x="0 13 24 34 40 45 55 60 70 81 87 97 107 112 123 133 138 149 155 166 172 177 187 192 206 212 223 " y="-4">Coeficientes de h(n) y w(n)</text>
   </g>
   <polyline fill="none" points="187.052,465.956 187.052,97.7989" stroke="#0071bc" stroke-linecap="butt" stroke-linejoin="round" stroke-width="2"/>
   <polyline fill="none" points="245.743,465.956 245.743,245.062" stroke="#0071bc" stroke-linecap="butt" stroke-linejoin="round" stroke-width="2"/>
   <polyline fill="none" points="304.434,465.956 304.434,392.325" stroke="#0071bc" stroke-linecap="butt" stroke-linejoin="round" stroke-width="2"/>
   <polyline fill="none" points="363.124,465.956 363.124,539.588" stroke="#0071bc" stroke-linecap="butt" stroke-linejoin="round" stroke-width="2"/>
   <polyline fill="none" points="421.815,465.956 421.815,429.141" stroke="#0071bc" stroke-linecap="butt" stroke-linejoin="round" stroke-width="2"/>
   <polyline fill="none" points="480.505,465.956 480.505,447.549" stroke="#0071bc" stroke-linecap="butt" stroke-linejoin="round" stroke-width="2"/>
   <polyline fill="none" points="539.196,465.956 539.196,465.956" stroke="#0071bc" stroke-linecap="butt" stroke-linejoin="round" stroke-width="2"/>
   <polyline fill="none" points="597.886,465.956 597.886,465.956" stroke="#0071bc" stroke-linecap="butt" stroke-linejoin="round" stroke-width="2"/>
   <polyline fill="none" points="656.577,465.956 656.577,465.956" stroke="#0071bc" stroke-linecap="butt" stroke-linejoin="round" stroke-width="2"/>
   <polyline fill="none" points="715.268,465.956 715.268,465.956" stroke="#0071bc" stroke-linecap="butt" stroke-linejoin="round" stroke-width="2"/>
   <polyline fill="none" points="773.958,465.956 773.958,465.956" stroke="#0071bc" stroke-linecap="butt" stroke-linejoin="round" stroke-width="2"/>
   <polyline fill="none" points="832.649,465.956 832.649,465.956" stroke="#0071bc" stroke-linecap="butt" stroke-linejoin="round" stroke-width="2"/>
   <polyline fill="none" points="891.339,465.956 891.339,465.956" stroke="#0071bc" stroke-linecap="butt" stroke-linejoin="round" stroke-width="2"/>
   <polyline fill="none" points="950.03,465.956 950.03,465.956" stroke="#0071bc" stroke-linecap="butt" stroke-linejoin="round" stroke-width="2"/>
   <polyline fill="none" points="1008.72,465.956 1008.72,465.956" stroke="#0071bc" stroke-linecap="butt" stroke-linejoin="round" stroke-width="2"/>
   <polyline fill="none" points="1067.41,465.956 1067.41,465.956" stroke="#0071bc" stroke-linecap="butt" stroke-linejoin="round" stroke-width="2"/>
   <polyline fill="none" points="1126.1,465.956 1126.1,465.956" stroke="#0071bc" stroke-linecap="butt" stroke-linejoin="round" stroke-width="2"/>
   <polyline fill="none" points="1184.79,465.956 1184.79,465.956" stroke="#0071bc" stroke-linecap="butt" stroke-linejoin="round" stroke-width="2"/>
   <polyline fill="none" points="1243.48,465.956 1243.48,465.956" stroke="#0071bc" stroke-linecap="butt" stroke-linejoin="round" stroke-width="2"/>
   <polyline fill="none" points="1302.17,465.956 1302.17,465.956" stroke="#0071bc" stroke-linecap="butt" stroke-linejoin="round" stroke-width="2"/>
   <polyline fill="none" points="190.052,97.7989 189.479,99.5623 187.98,100.652 186.125,100.652 184.625,99.5623 184.052,97.7989 184.625,96.0355 186.125,94.9457 187.98,94.9457 189.479,96.0355 190.052,97.7989" stroke="#0071bc" stroke-linecap="round" stroke-linejoin="round" stroke-width="2"/>
   <polyline fill="none" points="248.743,245.062 248.17,246.825 246.67,247.915 244.816,247.915 243.316,246.825 242.743,245.062 243.316,243.299 244.816,242.209 246.67,242.209 248.17,243.299 248.743,245.062" stroke="#0071bc" stroke-linecap="round" stroke-linejoin="round" stroke-width="2"/>
   <polyline fill="none" points="307.434,392.325 306.861,394.088 305.361,395.178 303.507,395.178 302.007,394.088 301.434,392.325 302.007,390.562 303.507,389.472 305.361,389.472 306.861,390.562 307.434,392.325" stroke="#0071bc" stroke-linecap="round" stroke-linejoin="round" stroke-width="2"/>
   <polyline fill="none" points="366.124,539.588 365.551,541.351 364.051,542.441 362.197,542.441 360.697,541.351 360.124,539.588 360.697,537.825 362.197,536.735 364.051,536.735 365.551,537.825 366.124,539.588" stroke="#0071bc" stroke-linecap="round" stroke-linejoin="round" stroke-width="2"/>
   <polyline fill="none" points="424.815,429.141 424.242,430.904 422.742,431.994 420.888,431.994 419.388,430.904 418.815,429.141 419.388,427.377 420.888,426.288 422.742,426.288 424.242,427.377 424.815,429.141" stroke="#0071bc" stroke-linecap="round" stroke-linejoin="round" stroke-width="2"/>
   <polyline fill="none" points="483.505,447.549 482.932,449.312 481.432,450.402 479.578,450.402 478.078,449.312 477.505,447.549 478.078,445.785 479.578,444.695 481.432,444.695 482.932,445.785 483.505,447.549" stroke="#0071bc" stroke-linecap="round" stroke-linejoin="round" stroke-width="2"/>
   <polyline fill="none" points="542.196,465.956 541.623,467.72 540.123,468.81 538.269,468.81 536.769,467.72 536.196,465.956 536.769,464.193 538.269,463.103 540.123,463.103 541.623,464.193 542.196,465.956" stroke="#0071bc" stroke-linecap="round" stroke-linejoin="round" stroke-width="2"/>
   <polyline fill="none" points="600.886,465.956 600.313,467.72 598.813,468.81 596.959,468.81 595.459,467.72 594.886,465.956 595.459,464.193 596.959,463.103 598.813,463.103 600.313,464.193 600.886,465.956" stroke="#0071bc" stroke-linecap="round" stroke-linejoin="round" stroke-width="2"/>
   <polyline fill="none" points="659.577,465.956 659.004,467.72 657.504,468.81 655.65,468.81 654.15,467.72 653.577,465.956 654.15,464.193 655.65,463.103 657.504,463.103 659.004,464.193 659.577,465.956" stroke="#0071bc" stroke-linecap="round" stroke-linejoin="round" stroke-width="2"/>
   <polyline fill="none" points="718.268,465.956 717.695,467.72 716.195,468.81 714.34,468.81 712.84,467.72 712.268,465.956 712.84,464.193 714.34,463.103 716.195,463.103 717.695,464.193 718.268,465.956" stroke="#0071bc" stroke-linecap="round" stroke-linejoin="round" stroke-width="2"/>
   <polyline fill="none" points="776.958,465.956 776.385,467.72 774.885,468.81 773.031,468.81 771.531,467.72 770.958,465.956 771.531,464.193 773.031,463.103 774.885,463.103 776.385,464.193 776.958,465.956" stroke="#0071bc" stroke-linecap="round" stroke-linejoin="round" stroke-width="2"/>
   <polyline fill="none" points="835.649,465.956 835.076,467.72 833.576,468.81 831.722,468.81 830.222,467.72 829.649,465.956 830.222,464.193 831.722,463.103 833.576,463.103 835.076,464.193 835.649,465.956" stroke="#0071bc" stroke-linecap="round" stroke-linejoin="round" stroke-width="2"/>
   <polyline fill="none" points="894.339,465.956 893.766,467.72 892.266,468.81 890.412,468.81 888.912,467.72 888.339,465.956 888.912,464.193 890.412,463.103 892.266,463.103 893.766,464.193 894.339,465.956" stroke="#0071bc" stroke-linecap="round" stroke-linejoin="round" stroke-width="2"/>
   <polyline fill="none" points="953.03,465.956 952.457,467.72 950.957,468.81 949.103,468.81 947.603,467.72 947.03,465.956 947.603,464.193 949.103,463.103 950.957,463.103 952.457,464.193 953.03,465.956" stroke="#0071bc" stroke-linecap="round" stroke-linejoin="round" stroke-width="2"/>
   <polyline fill="none" points="1011.72,465.956 1011.15,467.72 1009.65,468.81 1007.79,468.81 1006.29,467.72 1005.72,465.956 1006.29,464.193 1007.79,463.103 1009.65,463.103 1011.15,464.193 1011.72,465.956" stroke="#0071bc" stroke-linecap="round" stroke-linejoin="round" stroke-width="2"/>
   <polyline fill="none" points="1070.41,465.956 1069.84,467.72 1068.34,468.81 1066.48,468.81 1064.98,467.72 1064.41,465.956 1064.98,464.193 1066.48,463.103 1068.34,463.103 1069.84,464.193 1070.41,465.956" stroke="#0071bc" stroke-linecap="round" stroke-linejoin="round" stroke-width="2"/>
   <polyline fill="none" points="1129.1,465.956 1128.53,467.72 1127.03,468.81 1125.17,468.81 1123.67,467.72 1123.1,465.956 1123.67,464.193 1125.17,463.103 1127.03,463.103 1128.53,464.193 1129.1,465.956" stroke="#0071bc" stroke-linecap="round" stroke-linejoin="round" stroke-width="2"/>
   <polyline fill="none" points="1187.79,465.956 1187.22,467.72 1185.72,468.81 1183.86,468.81 1182.36,467.72 1181.79,465.956 1182.36,464.193 1183.86,463.103 1185.72,463.103 1187.22,464.193 1187.79,465.956" stroke="#0071bc" stroke-linecap="round" stroke-linejoin="round" stroke-width="2"/>
   <polyline fill="none" points="1246.48,465.956 1245.91,467.72 1244.41,468.81 1242.56,468.81 1241.06,467.72 1240.48,465.956 1241.06,464.193 1242.56,463.103 1244.41,463.103 1245.91,464.193 1246.48,465.956" stroke="#0071bc" stroke-linecap="round" stroke-linejoin="round" stroke-width="2"/>
   <polyline fill="none" points="1305.17,465.956 1304.6,467.72 1303.1,468.81 1301.25,468.81 1299.75,467.72 1299.17,465.956 1299.75,464.193 1301.25,463.103 1303.1,463.103 1304.6,464.193 1305.17,465.956" stroke="#0071bc" stroke-linecap="round" stroke-linejoin="round" stroke-width="2"/>
   <polyline fill="none" points="187.052,465.956 1302.17,465.956" stroke="#000000" stroke-linecap="butt" stroke-linejoin="round" stroke-width="2"/>
   <polyline fill="none" points="187.052,465.956 187.052,100.928" stroke="#d85218" stroke-linecap="butt" stroke-linejoin="round" stroke-width="2"/>
   <polyline fill="none" points="245.743,465.956 245.743,683.357" stroke="#d85218" stroke-linecap="butt" stroke-linejoin="round" stroke-width="2"/>
   <polyline fill="none" points="304.434,465.956 304.434,408.491" stroke="#d85218" stroke-linecap="butt" stroke-linejoin="round" stroke-width="2"/>
   <polyline fill="none" points="363.124,465.956 363.124,385.093" stroke="#d85218" stroke-linecap="butt" stroke-linejoin="round" stroke-width="2"/>
   <polyline fill="none" points="421.815,465.956 421.815,604.691" stroke="#d85218" stroke-linecap="butt" stroke-linejoin="round" stroke-width="2"/>
   <polyline fill="none" points="480.505,465.956 480.505,384.447" stroke="#d85218" stroke-linecap="butt" stroke-linejoin="round" stroke-width="2"/>
   <polyline fill="none" points="539.196,465.956 539.196,466.082" stroke="#d85218" stroke-linecap="butt" stroke-linejoin="round" stroke-width="2"/>
   <polyline fill="none" points="597.886,465.956 597.886,520.2" stroke="#d85218" stroke-linecap="butt" stroke-linejoin="round" stroke-width="2"/>
   <polyline fill="none" points="656.577,465.956 656.577,407.854" stroke="#d85218" stroke-linecap="butt" stroke-linejoin="round" stroke-width="2"/>
   <polyline fill="none" points="715.268,465.956 715.268,491.041" stroke="#d85218" stroke-linecap="butt" stroke-linejoin="round" stroke-width="2"/>
   <polyline fill="none" points="773.958,465.956 773.958,477.14" stroke="#d85218" stroke-linecap="butt" stroke-linejoin="round" stroke-width="2"/>
   <polyline fill="none" points="832.649,465.956 832.649,437.717" stroke="#d85218" stroke-linecap="butt" stroke-linejoin="round" stroke-width="2"/>
   <polyline fill="none" points="891.339,465.956 891.339,488.343" stroke="#d85218" stroke-linecap="butt" stroke-linejoin="round" stroke-width="2"/>
   <polyline fill="none" points="950.03,465.956 950.03,460.829" stroke="#d85218" stroke-linecap="butt" stroke-linejoin="round" stroke-width="2"/>
   <polyline fill="none" points="1008.72,465.956 1008.72,457.008" stroke="#d85218" stroke-linecap="butt" stroke-linejoin="round" stroke-width="2"/>
   <polyline fill="none" points="1067.41,465.956 1067.41,478.359" stroke="#d85218" stroke-linecap="butt" stroke-linejoin="round" stroke-width="2"/>
   <polyline fill="none" points="1126.1,465.956 1126.1,459" stroke="#d85218" stroke-linecap="butt" stroke-linejoin="round" stroke-width="2"/>
   <polyline fill="none" points="1184.79,465.956 1184.79,465.538" stroke="#d85218" stroke-linecap="butt" stroke-linejoin="round" stroke-width="2"/>
   <polyline fill="none" points="1243.48,465.956 1243.48,470.171" stroke="#d85218" stroke-linecap="butt" stroke-linejoin="round" stroke-width="2"/>
   <polyline fill="none" points="1302.17,465.956 1302.17,462.64" stroke="#d85218" stroke-linecap="butt" stroke-linejoin="round" stroke-width="2"/>
   <polyline fill="none" points="190.052,100.928 189.479,102.691 187.98,103.781 186.125,103.781 184.625,102.691 184.052,100.928 184.625,99.1644 186.125,98.0746 187.98,98.0746 189.479,99.1644 190.052,100.928" stroke="#d85218" stroke-linecap="round" stroke-linejoin="round" stroke-width="2"/>
   <polyline fill="none" points="248.743,683.357 248.17,685.121 246.67,686.211 244.816,686.211 243.316,685.121 242.743,683.357 243.316,681.594 244.816,680.504 246.67,680.504 248.17,681.594 248.743,683.357" stroke="#d85218" stroke-linecap="round" stroke-linejoin="round" stroke-width="2"/>
   <polyline fill="none" points="307.434,408.491 306.861,410.254 305.361,411.344 303.507,411.344 302.007,410.254 301.434,408.491 302.007,406.728 303.507,405.638 305.361,405.638 306.861,406.728 307.434,408.491" stroke="#d85218" stroke-linecap="round" stroke-linejoin="round" stroke-width="2"/>
   <polyline fill="none" points="366.124,385.093 365.551,386.857 364.051,387.947 362.197,387.947 360.697,386.857 360.124,385.093 360.697,383.33 362.197,382.24 364.051,382.24 365.551,383.33 366.124,385.093" stroke="#d85218" stroke-linecap="round" stroke-linejoin="round" stroke-width="2"/>
   <polyline fill="none" points="424.815,604.691 424.242,606.454 422.742,607.544 420.888,607.544 419.388,606.454 418.815,604.691 419.388,602.927 420.888,601.838 422.742,601.838 424.242,602.927 424.815,604.691" stroke="#d85218" stroke-linecap="round" stroke-linejoin="round" stroke-width="2"/>
   <polyline fill="none" points="483.505,384.447 482.932,386.21 481.432,387.3 479.578,387.3 478.078,386.21 477.505,384.447 478.078,382.683 479.578,381.593 481.432,381.593 482.932,382.683 483.505,384.447" stroke="#d85218" stroke-linecap="round" stroke-linejoin="round" stroke-width="2"/>
   <polyline fill="none" points="542.196,466.082 541.623,467.845 540.123,468.935 538.269,468.935 536.769,467.845 536.196,466.082 536.769,464.319 538.269,463.229 540.123,463.229 541.623,464.319 542.196,466.082" stroke="#d85218" stroke-linecap="round" stroke-linejoin="round" stroke-width="2"/>
   <polyline fill="none" points="600.886,520.2 600.313,521.963 598.813,523.053 596.959,523.053 595.459,521.963 594.886,520.2 595.459,518.436 596.959,517.347 598.813,517.347 600.313,518.436 600.886,520.2" stroke="#d85218" stroke-linecap="round" stroke-linejoin="round" stroke-width="2"/>
   <polyline fill="none" points="659.577,407.854 659.004,409.617 657.504,410.707 655.65,410.707 654.15,409.617 653.577,407.854 654.15,406.091 655.65,405.001 657.504,405.001 659.004,406.091 659.577,407.854" stroke="#d85218" stroke-linecap="round" stroke-linejoin="round" stroke-width="2"/>
   <polyline fill="none" points="718.268,491.041 717.695,492.805 716.195,493.894 714.34,493.894 712.84,492.805 712.268,491.041 712.84,489.278 714.34,488.188 716.195,488.188 717.695,489.278 718.268,491.041" stroke="#d85218" stroke-linecap="round" stroke-linejoin="round" stroke-width="2"/>
   <polyline fill="none" points="776.958,477.14 776.385,478.903 774.885,479.993 773.031,479.993 771.531,478.903 770.958,477.14 771.531,475.376 773.031,474.287 774.885,474.287 776.385,475.376 776.958,477.14" stroke="#d85218" stroke-linecap="round" stroke-linejoin="round" stroke-width="2"/>
   <polyline fill="none" points="835.649,437.717 835.076,439.48 833.576,440.57 831.722,440.57 830.222,439.48 829.649,437.717 830.222,435.954 831.722,434.864 833.576,434.864 835.076,435.954 835.649,437.717" stroke="#d85218" stroke-linecap="round" stroke-linejoin="round" stroke-width="2"/>
   <polyline fill="none" points="894.339,488.343 893.766,490.106 892.266,491.196 890.412,491.196 888.912,490.106 888.339,488.343 888.912,486.579 890.412,485.49 892.266,485.49 893.766,486.579 894.339,488.343" stroke="#d85218" stroke-linecap="round" stroke-linejoin="round" stroke-width="2"/>
   <polyline fill="none" points="953.03,460.829 952.457,462.592 950.957,463.682 949.103,463.682 947.603,462.592 947.03,460.829 947.603,459.065 949.103,457.976 950.957,457.976 952.457,459.065 953.03,460.829" stroke="#d85218" stroke-linecap="round" stroke-linejoin="round" stroke-width="2"/>
   <polyline fill="none" points="1011.72,457.008 1011.15,458.771 1009.65,459.861 1007.79,459.861 1006.29,458.771 1005.72,457.008 1006.29,455.245 1007.79,454.155 1009.65,454.155 1011.15,455.245 1011.72,457.008" stroke="#d85218" stroke-linecap="round" stroke-linejoin="round" stroke-width="2"/>
   <polyline fill="none" points="1070.41,478.359 1069.84,480.123 1068.34,481.213 1066.48,481.213 1064.98,480.123 1064.41,478.359 1064.98,476.596 1066.48,475.506 1068.34,475.506 1069.84,476.596 1070.41,478.359" stroke="#d85218" stroke-linecap="round" stroke-linejoin="round" stroke-width="2"/>
   <polyline fill="none" points="1129.1,459 1128.53,460.763 1127.03,461.853 1125.17,461.853 1123.67,460.763 1123.1,459 1123.67,457.236 1125.17,456.146 1127.03,456.146 1128.53,457.236 1129.1,459" stroke="#d85218" stroke-linecap="round" stroke-linejoin="round" stroke-width="2"/>
   <polyline fill="none" points="1187.79,465.538 1187.22,467.301 1185.72,468.391 1183.86,468.391 1182.36,467.301 1181.79,465.538 1182.36,463.775 1183.86,462.685 1185.72,462.685 1187.22,463.775 1187.79,465.538" stroke="#d85218" stroke-linecap="round" stroke-linejoin="round" stroke-width="2"/>
   <polyline fill="none" points="1246.48,470.171 1245.91,471.934 1244.41,473.024 1242.56,473.024 1241.06,471.934 1240.48,470.171 1241.06,468.407 1242.56,467.317 1244.41,467.317 1245.91,468.407 1246.48,470.171" stroke="#d85218" stroke-linecap="round" stroke-linejoin="round" stroke-width="2"/>
   <polyline fill="none" points="1305.17,462.64 1304.6,464.403 1303.1,465.493 1301.25,465.493 1299.75,464.403 1299.17,462.64 1299.75,460.876 1301.25,459.787 1303.1,459.787 1304.6,460.876 1305.17,462.64" stroke="#d85218" stroke-linecap="round" stroke-linejoin="round" stroke-width="2"/>
  </g>
  <clipPath id="cp001438813">
   <polygon points="0,813 1438,813 1438,0 0,0"/>
  </clipPath>
  <g clip-path="url(#cp001438813)">
   <polygon fill="#ffffff" points="1234.14,110.999 1294.17,110.999 1294.17,68.9894 1234.14,68.9894" shape-rendering="crispEdges"/>
   <polyline fill="none" points="1234.14,110.999 1294.17,110.999" stroke="#262626" stroke-dasharray="16,0" stroke-linecap="square" stroke-linejoin="miter" stroke-width="0.5"/>
   <polyline fill="none" points="1234.14,68.9894 1294.17,68.9894" stroke="#262626" stroke-dasharray="16,0" stroke-linecap="square" stroke-linejoin="miter" stroke-width="0.5"/>
   <polyline fill="none" points="1234.14,110.999 1234.14,68.9894" stroke="#262626" stroke-dasharray="16,0" stroke-linecap="square" stroke-linejoin="miter" stroke-width="0.5"/>
   <polyline fill="none" points="1294.17,110.999 1294.17,68.9894" stroke="#262626" stroke-dasharray="16,0" stroke-linecap="square" stroke-linejoin="miter" stroke-width="0.5"/>
   <polyline fill="none" points="1238.14,80.4926 1254.16,80.4926" stroke="#0071bc" stroke-linecap="butt" stroke-linejoin="round" stroke-width="2"/>
   <polyline fill="none" points="1257.16,80.4926 1256.58,82.256 1255.08,83.3458 1253.23,83.3458 1251.73,82.256 1251.16,80.4926 1251.73,78.7292 1253.23,77.6395 1255.08,77.6395 1256.58,78.7292 1257.16,80.4926" stroke="#0071bc" stroke-linecap="round" stroke-linejoin="round" stroke-width="2"/>
   <g font-family="FreeSans" font-size="14.4" font-style="normal" font-weight="normal" transform="translate(1262.16,87.9926) rotate(-0,-0,-7.5)" xml:space="preserve">
    <text fill="rgb(0,0,0)" x="0 8 13 21 " y="-3">h(n)</text>
   </g>
   <polyline fill="none" points="1238.14,99.4958 1254.16,99.4958" stroke="#d85218" stroke-linecap="butt" stroke-linejoin="round" stroke-width="2"/>
   <polyline fill="none" points="1257.16,99.4958 1256.58,101.259 1255.08,102.349 1253.23,102.349 1251.73,101.259 1251.16,99.4958 1251.73,97.7324 1253.23,96.6426 1255.08,96.6426 1256.58,97.7324 1257.16,99.4958" stroke="#d85218" stroke-linecap="round" stroke-linejoin="round" stroke-width="2"/>
   <g font-family="FreeSans" font-size="14.4" font-style="normal" font-weight="normal" transform="translate(1262.16,106.996) rotate(-0,-0,-7.5)" xml:space="preserve">
    <text fill="rgb(0,0,0)" x="0 10 15 23 " y="-3">w(n)</text>
   </g>
  </g>
 </g>
</svg>
