<?xml version='1.0' encoding='UTF-8' standalone='no'?>
<svg height="363pt" viewBox="0 0 1438 363" width="1438pt" xmlns="http://www.w3.org/2000/svg" xmlns:xlink="http://www.w3.org/1999/xlink">
 <title>Figure 4</title>
 <desc>
Creator: GL2PS 1.4.2, (C) 1999-2020 C. Geuzaine
For: Octave
CreationDate: Sat Jun 14 20:27:11 2025
</desc>
 <defs/>
 <polygon fill="#ffffff" points="0,0 1438,0 1438,363 0,363"/>
 <g>
  <polygon fill="#ffffff" points="0,363 1438,363 1438,0 0,0" shape-rendering="crispEdges"/>
  <clipPath id="cp001438363">
   <polygon points="0,363 1438,363 1438,0 0,0"/>
  </clipPath>
  <g clip-path="url(#cp001438363)">
   <polygon fill="#ffffff" points="187.052,315.454 1302.17,315.454 1302.17,28 187.052,28" shape-rendering="crispEdges"/>
   <polyline fill="none" points="187.052,315.454 187.052,28" stroke="#262626" stroke-dasharray="16,0" stroke-linecap="butt" stroke-linejoin="miter" stroke-opacity="0.15" stroke-width="0.5"/>
   <polyline fill="none" points="480.505,315.454 480.505,28" stroke="#262626" stroke-dasharray="16,0" stroke-linecap="butt" stroke-linejoin="miter" stroke-opacity="0.15" stroke-width="0.5"/>
   <polyline fill="none" points="773.958,315.454 773.958,28" stroke="#262626" stroke-dasharray="16,0" stroke-linecap="butt" stroke-linejoin="miter" stroke-opacity="0.15" stroke-width="0.5"/>
   <polyline fill="none" points="1067.41,315.454 1067.41,28" stroke="#262626" stroke-dasharray="16,0" stroke-linecap="butt" stroke-linejoin="miter" stroke-opacity="0.15" stroke-width="0.5"/>
   <polyline fill="none" points="187.052,315.454 187.052,304.285" stroke="#262626" stroke-linecap="butt" stroke-linejoin="miter" stroke-width="0.5"/>
   <polyline fill="none" points="187.052,28 187.052,39.1689" stroke="#262626" stroke-linecap="butt" stroke-linejoin="miter" stroke-width="0.5"/>
   <polyline fill="none" points="480.505,315.454 480.505,304.285" stroke="#262626" stroke-linecap="butt" stroke-linejoin="miter" stroke-width="0.5"/>
   <polyline fill="none" points="480.505,28 480.505,39.1689" stroke="#262626" stroke-linecap="butt" stroke-linejoin="miter" stroke-width="0.5"/>
   <polyline fill="none" points="773.958,315.454 773.958,304.285" stroke="#262626" stroke-linecap="butt" stroke-linejoin="miter" stroke-width="0.5"/>
   <polyline fill="none" points="773.958,28 773.958,39.1689" stroke="#262626" stroke-linecap="butt" stroke-linejoin="miter" stroke-width="0.5"/>
   <polyline fill="none" points="1067.41,315.454 1067.41,304.285" stroke="#262626" stroke-linecap="butt" stroke-linejoin="miter" stroke-width="0.5"/>
   <polyline fill="none" points="1067.41,28 1067.41,39.1689" stroke="#262626" stroke-linecap="butt" stroke-linejoin="miter" stroke-width="0.5"/>
   <g font-family="FreeSans" font-size="16" font-style="normal" font-weight="normal" transform="translate(182.552,340.473) rotate(-0,4.5,-13)" xml:space="preserve">
    <text fill="rgb(38,38,38)" x="0 " y="-0">0</text>
   </g>
   <g font-family="FreeSans" font-size="16" font-style="normal" font-weight="normal" transform="translate(476.005,340.473) rotate(-0,4.5,-13)" xml:space="preserve">
    <text fill="rgb(38,38,38)" x="0 " y="-0">5</text>
   </g>
   <g font-family="FreeSans" font-size="16" font-style="normal" font-weight="normal" transform="translate(764.958,340.473) rotate(-0,9,-13)" xml:space="preserve">
    <text fill="rgb(38,38,38)" x="0 9 " y="-0">10</text>
   </g>
   <g font-family="FreeSans" font-size="16" font-style="normal" font-weight="normal" transform="translate(1058.41,340.473) rotate(-0,9,-13)" xml:space="preserve">
    <text fill="rgb(38,38,38)" x="0 9 " y="-0">15</text>
   </g>
   <polyline fill="none" points="187.052,283.515 1302.17,283.515" stroke="#262626" stroke-dasharray="16,0" stroke-linecap="butt" stroke-linejoin="miter" stroke-opacity="0.15" stroke-width="0.5"/>
   <polyline fill="none" points="187.052,203.667 1302.17,203.667" stroke="#262626" stroke-dasharray="16,0" stroke-linecap="butt" stroke-linejoin="miter" stroke-opacity="0.15" stroke-width="0.5"/>
   <polyline fill="none" points="187.052,123.818 1302.17,123.818" stroke="#262626" stroke-dasharray="16,0" stroke-linecap="butt" stroke-linejoin="miter" stroke-opacity="0.15" stroke-width="0.5"/>
   <polyline fill="none" points="187.052,43.9697 1302.17,43.9697" stroke="#262626" stroke-dasharray="16,0" stroke-linecap="butt" stroke-linejoin="miter" stroke-opacity="0.15" stroke-width="0.5"/>
   <polyline fill="none" points="187.052,283.515 198.205,283.515" stroke="#262626" stroke-linecap="butt" stroke-linejoin="miter" stroke-width="0.5"/>
   <polyline fill="none" points="1302.17,283.515 1291.02,283.515" stroke="#262626" stroke-linecap="butt" stroke-linejoin="miter" stroke-width="0.5"/>
   <polyline fill="none" points="187.052,203.667 198.205,203.667" stroke="#262626" stroke-linecap="butt" stroke-linejoin="miter" stroke-width="0.5"/>
   <polyline fill="none" points="1302.17,203.667 1291.02,203.667" stroke="#262626" stroke-linecap="butt" stroke-linejoin="miter" stroke-width="0.5"/>
   <polyline fill="none" points="187.052,123.818 198.205,123.818" stroke="#262626" stroke-linecap="butt" stroke-linejoin="miter" stroke-width="0.5"/>
   <polyline fill="none" points="1302.17,123.818 1291.02,123.818" stroke="#262626" stroke-linecap="butt" stroke-linejoin="miter" stroke-width="0.5"/>
   <polyline fill="none" points="187.052,43.9697 198.205,43.9697" stroke="#262626" stroke-linecap="butt" stroke-linejoin="miter" stroke-width="0.5"/>
   <polyline fill="none" points="1302.17,43.9697 1291.02,43.9697" stroke="#262626" stroke-linecap="butt" stroke-linejoin="miter" stroke-width="0.5"/>
   <g font-family="FreeSans" font-size="16" font-style="normal" font-weight="normal" transform="translate(152.052,290.015) rotate(-0,27,-6.5)" xml:space="preserve">
    <text fill="rgb(38,38,38)" x="0 5 14 18 " y="-0">-0.5</text>
   </g>
   <g font-family="FreeSans" font-size="16" font-style="normal" font-weight="normal" transform="translate(170.052,210.167) rotate(-0,9,-6.5)" xml:space="preserve">
    <text fill="rgb(38,38,38)" x="0 " y="-0">0</text>
   </g>
   <g font-family="FreeSans" font-size="16" font-style="normal" font-weight="normal" transform="translate(157.052,130.318) rotate(-0,22,-6.5)" xml:space="preserve">
    <text fill="rgb(38,38,38)" x="0 9 13 " y="-0">0.5</text>
   </g>
   <g font-family="FreeSans" font-size="16" font-style="normal" font-weight="normal" transform="translate(170.052,50.4697) rotate(-0,9,-6.5)" xml:space="preserve">
    <text fill="rgb(38,38,38)" x="0 " y="-0">1</text>
   </g>
   <polyline fill="none" points="187.052,315.454 1302.17,315.454" stroke="#262626" stroke-dasharray="16,0" stroke-linecap="square" stroke-linejoin="miter" stroke-width="0.5"/>
   <polyline fill="none" points="187.052,28 1302.17,28" stroke="#262626" stroke-dasharray="16,0" stroke-linecap="square" stroke-linejoin="miter" stroke-width="0.5"/>
   <polyline fill="none" points="187.052,315.454 187.052,28" stroke="#262626" stroke-dasharray="16,0" stroke-linecap="square" stroke-linejoin="miter" stroke-width="0.5"/>
   <polyline fill="none" points="1302.17,315.454 1302.17,28" stroke="#262626" stroke-dasharray="16,0" stroke-linecap="square" stroke-linejoin="miter" stroke-width="0.5"/>
   <g font-family="FreeSans" font-size="17.6" font-style="normal" font-weight="normal" transform="translate(716.113,363.473) rotate(-0,28.5,-18)" xml:space="preserve">
    <text fill="rgb(38,38,38)" x="0 11 15 24 38 48 " y="-4">Tiempo</text>
   </g>
   <g font-family="FreeSans" font-size="17.6" font-style="normal" font-weight="bold" transform="translate(630.113,18) rotate(-0,114.5,0)" xml:space="preserve">
    <text fill="rgb(0,0,0)" x="0 13 24 34 40 45 55 60 70 81 87 97 107 112 123 133 138 149 155 166 172 177 187 192 206 212 223 " y="-4">Coeficientes de h(n) y w(n)</text>
   </g>
   <polyline fill="none" points="187.052,203.667 187.052,43.9697" stroke="#0071bc" stroke-linecap="butt" stroke-linejoin="round" stroke-width="2"/>
   <polyline fill="none" points="245.743,203.667 245.743,107.848" stroke="#0071bc" stroke-linecap="butt" stroke-linejoin="round" stroke-width="2"/>
   <polyline fill="none" points="304.434,203.667 304.434,171.727" stroke="#0071bc" stroke-linecap="butt" stroke-linejoin="round" stroke-width="2"/>
   <polyline fill="none" points="363.124,203.667 363.124,235.606" stroke="#0071bc" stroke-linecap="butt" stroke-linejoin="round" stroke-width="2"/>
   <polyline fill="none" points="421.815,203.667 421.815,187.697" stroke="#0071bc" stroke-linecap="butt" stroke-linejoin="round" stroke-width="2"/>
   <polyline fill="none" points="480.505,203.667 480.505,195.682" stroke="#0071bc" stroke-linecap="butt" stroke-linejoin="round" stroke-width="2"/>
   <polyline fill="none" points="539.196,203.667 539.196,203.667" stroke="#0071bc" stroke-linecap="butt" stroke-linejoin="round" stroke-width="2"/>
   <polyline fill="none" points="597.886,203.667 597.886,203.667" stroke="#0071bc" stroke-linecap="butt" stroke-linejoin="round" stroke-width="2"/>
   <polyline fill="none" points="656.577,203.667 656.577,203.667" stroke="#0071bc" stroke-linecap="butt" stroke-linejoin="round" stroke-width="2"/>
   <polyline fill="none" points="715.268,203.667 715.268,203.667" stroke="#0071bc" stroke-linecap="butt" stroke-linejoin="round" stroke-width="2"/>
   <polyline fill="none" points="773.958,203.667 773.958,203.667" stroke="#0071bc" stroke-linecap="butt" stroke-linejoin="round" stroke-width="2"/>
   <polyline fill="none" points="832.649,203.667 832.649,203.667" stroke="#0071bc" stroke-linecap="butt" stroke-linejoin="round" stroke-width="2"/>
   <polyline fill="none" points="891.339,203.667 891.339,203.667" stroke="#0071bc" stroke-linecap="butt" stroke-linejoin="round" stroke-width="2"/>
   <polyline fill="none" points="950.03,203.667 950.03,203.667" stroke="#0071bc" stroke-linecap="butt" stroke-linejoin="round" stroke-width="2"/>
   <polyline fill="none" points="1008.72,203.667 1008.72,203.667" stroke="#0071bc" stroke-linecap="butt" stroke-linejoin="round" stroke-width="2"/>
   <polyline fill="none" points="1067.41,203.667 1067.41,203.667" stroke="#0071bc" stroke-linecap="butt" stroke-linejoin="round" stroke-width="2"/>
   <polyline fill="none" points="1126.1,203.667 1126.1,203.667" stroke="#0071bc" stroke-linecap="butt" stroke-linejoin="round" stroke-width="2"/>
   <polyline fill="none" points="1184.79,203.667 1184.79,203.667" stroke="#0071bc" stroke-linecap="butt" stroke-linejoin="round" stroke-width="2"/>
   <polyline fill="none" points="1243.48,203.667 1243.48,203.667" stroke="#0071bc" stroke-linecap="butt" stroke-linejoin="round" stroke-width="2"/>
   <polyline fill="none" points="1302.17,203.667 1302.17,203.667" stroke="#0071bc" stroke-linecap="butt" stroke-linejoin="round" stroke-width="2"/>
   <polyline fill="none" points="190.052,43.9697 189.479,45.733 187.98,46.8228 186.125,46.8228 184.625,45.733 184.052,43.9697 184.625,42.2063 186.125,41.1165 187.98,41.1165 189.479,42.2063 190.052,43.9697" stroke="#0071bc" stroke-linecap="round" stroke-linejoin="round" stroke-width="2"/>
   <polyline fill="none" points="248.743,107.848 248.17,109.612 246.67,110.702 244.816,110.702 243.316,109.612 242.743,107.848 243.316,106.085 244.816,104.995 246.67,104.995 248.17,106.085 248.743,107.848" stroke="#0071bc" stroke-linecap="round" stroke-linejoin="round" stroke-width="2"/>
   <polyline fill="none" points="307.434,171.727 306.861,173.491 305.361,174.58 303.507,174.58 302.007,173.491 301.434,171.727 302.007,169.964 303.507,168.874 305.361,168.874 306.861,169.964 307.434,171.727" stroke="#0071bc" stroke-linecap="round" stroke-linejoin="round" stroke-width="2"/>
   <polyline fill="none" points="366.124,235.606 365.551,237.369 364.051,238.459 362.197,238.459 360.697,237.369 360.124,235.606 360.697,233.843 362.197,232.753 364.051,232.753 365.551,233.843 366.124,235.606" stroke="#0071bc" stroke-linecap="round" stroke-linejoin="round" stroke-width="2"/>
   <polyline fill="none" points="424.815,187.697 424.242,189.46 422.742,190.55 420.888,190.55 419.388,189.46 418.815,187.697 419.388,185.934 420.888,184.844 422.742,184.844 424.242,185.934 424.815,187.697" stroke="#0071bc" stroke-linecap="round" stroke-linejoin="round" stroke-width="2"/>
   <polyline fill="none" points="483.505,195.682 482.932,197.445 481.432,198.535 479.578,198.535 478.078,197.445 477.505,195.682 478.078,193.918 479.578,192.829 481.432,192.829 482.932,193.918 483.505,195.682" stroke="#0071bc" stroke-linecap="round" stroke-linejoin="round" stroke-width="2"/>
   <polyline fill="none" points="542.196,203.667 541.623,205.43 540.123,206.52 538.269,206.52 536.769,205.43 536.196,203.667 536.769,201.903 538.269,200.813 540.123,200.813 541.623,201.903 542.196,203.667" stroke="#0071bc" stroke-linecap="round" stroke-linejoin="round" stroke-width="2"/>
   <polyline fill="none" points="600.886,203.667 600.313,205.43 598.813,206.52 596.959,206.52 595.459,205.43 594.886,203.667 595.459,201.903 596.959,200.813 598.813,200.813 600.313,201.903 600.886,203.667" stroke="#0071bc" stroke-linecap="round" stroke-linejoin="round" stroke-width="2"/>
   <polyline fill="none" points="659.577,203.667 659.004,205.43 657.504,206.52 655.65,206.52 654.15,205.43 653.577,203.667 654.15,201.903 655.65,200.813 657.504,200.813 659.004,201.903 659.577,203.667" stroke="#0071bc" stroke-linecap="round" stroke-linejoin="round" stroke-width="2"/>
   <polyline fill="none" points="718.268,203.667 717.695,205.43 716.195,206.52 714.34,206.52 712.84,205.43 712.268,203.667 712.84,201.903 714.34,200.813 716.195,200.813 717.695,201.903 718.268,203.667" stroke="#0071bc" stroke-linecap="round" stroke-linejoin="round" stroke-width="2"/>
   <polyline fill="none" points="776.958,203.667 776.385,205.43 774.885,206.52 773.031,206.52 771.531,205.43 770.958,203.667 771.531,201.903 773.031,200.813 774.885,200.813 776.385,201.903 776.958,203.667" stroke="#0071bc" stroke-linecap="round" stroke-linejoin="round" stroke-width="2"/>
   <polyline fill="none" points="835.649,203.667 835.076,205.43 833.576,206.52 831.722,206.52 830.222,205.43 829.649,203.667 830.222,201.903 831.722,200.813 833.576,200.813 835.076,201.903 835.649,203.667" stroke="#0071bc" stroke-linecap="round" stroke-linejoin="round" stroke-width="2"/>
   <polyline fill="none" points="894.339,203.667 893.766,205.43 892.266,206.52 890.412,206.52 888.912,205.43 888.339,203.667 888.912,201.903 890.412,200.813 892.266,200.813 893.766,201.903 894.339,203.667" stroke="#0071bc" stroke-linecap="round" stroke-linejoin="round" stroke-width="2"/>
   <polyline fill="none" points="953.03,203.667 952.457,205.43 950.957,206.52 949.103,206.52 947.603,205.43 947.03,203.667 947.603,201.903 949.103,200.813 950.957,200.813 952.457,201.903 953.03,203.667" stroke="#0071bc" stroke-linecap="round" stroke-linejoin="round" stroke-width="2"/>
   <polyline fill="none" points="1011.72,203.667 1011.15,205.43 1009.65,206.52 1007.79,206.52 1006.29,205.43 1005.72,203.667 1006.29,201.903 1007.79,200.813 1009.65,200.813 1011.15,201.903 1011.72,203.667" stroke="#0071bc" stroke-linecap="round" stroke-linejoin="round" stroke-width="2"/>
   <polyline fill="none" points="1070.41,203.667 1069.84,205.43 1068.34,206.52 1066.48,206.52 1064.98,205.43 1064.41,203.667 1064.98,201.903 1066.48,200.813 1068.34,200.813 1069.84,201.903 1070.41,203.667" stroke="#0071bc" stroke-linecap="round" stroke-linejoin="round" stroke-width="2"/>
   <polyline fill="none" points="1129.1,203.667 1128.53,205.43 1127.03,206.52 1125.17,206.52 1123.67,205.43 1123.1,203.667 1123.67,201.903 1125.17,200.813 1127.03,200.813 1128.53,201.903 1129.1,203.667" stroke="#0071bc" stroke-linecap="round" stroke-linejoin="round" stroke-width="2"/>
   <polyline fill="none" points="1187.79,203.667 1187.22,205.43 1185.72,206.52 1183.86,206.52 1182.36,205.43 1181.79,203.667 1182.36,201.903 1183.86,200.813 1185.72,200.813 1187.22,201.903 1187.79,203.667" stroke="#0071bc" stroke-linecap="round" stroke-linejoin="round" stroke-width="2"/>
   <polyline fill="none" points="1246.48,203.667 1245.91,205.43 1244.41,206.52 1242.56,206.52 1241.06,205.43 1240.48,203.667 1241.06,201.903 1242.56,200.813 1244.41,200.813 1245.91,201.903 1246.48,203.667" stroke="#0071bc" stroke-linecap="round" stroke-linejoin="round" stroke-width="2"/>
   <polyline fill="none" points="1305.17,203.667 1304.6,205.43 1303.1,206.52 1301.25,206.52 1299.75,205.43 1299.17,203.667 1299.75,201.903 1301.25,200.813 1303.1,200.813 1304.6,201.903 1305.17,203.667" stroke="#0071bc" stroke-linecap="round" stroke-linejoin="round" stroke-width="2"/>
   <polyline fill="none" points="187.052,203.667 1302.17,203.667" stroke="#000000" stroke-linecap="butt" stroke-linejoin="round" stroke-width="2"/>
   <polyline fill="none" points="187.052,203.667 187.052,45.3269" stroke="#d85218" stroke-linecap="butt" stroke-linejoin="round" stroke-width="2"/>
   <polyline fill="none" points="245.743,203.667 245.743,297.969" stroke="#d85218" stroke-linecap="butt" stroke-linejoin="round" stroke-width="2"/>
   <polyline fill="none" points="304.434,203.667 304.434,178.74" stroke="#d85218" stroke-linecap="butt" stroke-linejoin="round" stroke-width="2"/>
   <polyline fill="none" points="363.124,203.667 363.124,168.59" stroke="#d85218" stroke-linecap="butt" stroke-linejoin="round" stroke-width="2"/>
   <polyline fill="none" points="421.815,203.667 421.815,263.846" stroke="#d85218" stroke-linecap="butt" stroke-linejoin="round" stroke-width="2"/>
   <polyline fill="none" points="480.505,203.667 480.505,168.31" stroke="#d85218" stroke-linecap="butt" stroke-linejoin="round" stroke-width="2"/>
   <polyline fill="none" points="539.196,203.667 539.196,203.721" stroke="#d85218" stroke-linecap="butt" stroke-linejoin="round" stroke-width="2"/>
   <polyline fill="none" points="597.886,203.667 597.886,227.196" stroke="#d85218" stroke-linecap="butt" stroke-linejoin="round" stroke-width="2"/>
   <polyline fill="none" points="656.577,203.667 656.577,178.463" stroke="#d85218" stroke-linecap="butt" stroke-linejoin="round" stroke-width="2"/>
   <polyline fill="none" points="715.268,203.667 715.268,214.548" stroke="#d85218" stroke-linecap="butt" stroke-linejoin="round" stroke-width="2"/>
   <polyline fill="none" points="773.958,203.667 773.958,208.518" stroke="#d85218" stroke-linecap="butt" stroke-linejoin="round" stroke-width="2"/>
   <polyline fill="none" points="832.649,203.667 832.649,191.417" stroke="#d85218" stroke-linecap="butt" stroke-linejoin="round" stroke-width="2"/>
   <polyline fill="none" points="891.339,203.667 891.339,213.377" stroke="#d85218" stroke-linecap="butt" stroke-linejoin="round" stroke-width="2"/>
   <polyline fill="none" points="950.03,203.667 950.03,201.442" stroke="#d85218" stroke-linecap="butt" stroke-linejoin="round" stroke-width="2"/>
   <polyline fill="none" points="1008.72,203.667 1008.72,199.785" stroke="#d85218" stroke-linecap="butt" stroke-linejoin="round" stroke-width="2"/>
   <polyline fill="none" points="1067.41,203.667 1067.41,209.047" stroke="#d85218" stroke-linecap="butt" stroke-linejoin="round" stroke-width="2"/>
   <polyline fill="none" points="1126.1,203.667 1126.1,200.649" stroke="#d85218" stroke-linecap="butt" stroke-linejoin="round" stroke-width="2"/>
   <polyline fill="none" points="1184.79,203.667 1184.79,203.485" stroke="#d85218" stroke-linecap="butt" stroke-linejoin="round" stroke-width="2"/>
   <polyline fill="none" points="1243.48,203.667 1243.48,205.494" stroke="#d85218" stroke-linecap="butt" stroke-linejoin="round" stroke-width="2"/>
   <polyline fill="none" points="1302.17,203.667 1302.17,202.228" stroke="#d85218" stroke-linecap="butt" stroke-linejoin="round" stroke-width="2"/>
   <polyline fill="none" points="190.052,45.3269 189.479,47.0902 187.98,48.1801 186.125,48.1801 184.625,47.0902 184.052,45.3269 184.625,43.5635 186.125,42.4737 187.98,42.4737 189.479,43.5635 190.052,45.3269" stroke="#d85218" stroke-linecap="round" stroke-linejoin="round" stroke-width="2"/>
   <polyline fill="none" points="248.743,297.969 248.17,299.733 246.67,300.822 244.816,300.822 243.316,299.733 242.743,297.969 243.316,296.206 244.816,295.116 246.67,295.116 248.17,296.206 248.743,297.969" stroke="#d85218" stroke-linecap="round" stroke-linejoin="round" stroke-width="2"/>
   <polyline fill="none" points="307.434,178.74 306.861,180.503 305.361,181.593 303.507,181.593 302.007,180.503 301.434,178.74 302.007,176.976 303.507,175.886 305.361,175.886 306.861,176.976 307.434,178.74" stroke="#d85218" stroke-linecap="round" stroke-linejoin="round" stroke-width="2"/>
   <polyline fill="none" points="366.124,168.59 365.551,170.354 364.051,171.444 362.197,171.444 360.697,170.354 360.124,168.59 360.697,166.827 362.197,165.737 364.051,165.737 365.551,166.827 366.124,168.59" stroke="#d85218" stroke-linecap="round" stroke-linejoin="round" stroke-width="2"/>
   <polyline fill="none" points="424.815,263.846 424.242,265.609 422.742,266.699 420.888,266.699 419.388,265.609 418.815,263.846 419.388,262.082 420.888,260.993 422.742,260.993 424.242,262.082 424.815,263.846" stroke="#d85218" stroke-linecap="round" stroke-linejoin="round" stroke-width="2"/>
   <polyline fill="none" points="483.505,168.31 482.932,170.073 481.432,171.163 479.578,171.163 478.078,170.073 477.505,168.31 478.078,166.546 479.578,165.457 481.432,165.457 482.932,166.546 483.505,168.31" stroke="#d85218" stroke-linecap="round" stroke-linejoin="round" stroke-width="2"/>
   <polyline fill="none" points="542.196,203.721 541.623,205.484 540.123,206.574 538.269,206.574 536.769,205.484 536.196,203.721 536.769,201.958 538.269,200.868 540.123,200.868 541.623,201.958 542.196,203.721" stroke="#d85218" stroke-linecap="round" stroke-linejoin="round" stroke-width="2"/>
   <polyline fill="none" points="600.886,227.196 600.313,228.959 598.813,230.049 596.959,230.049 595.459,228.959 594.886,227.196 595.459,225.432 596.959,224.343 598.813,224.343 600.313,225.432 600.886,227.196" stroke="#d85218" stroke-linecap="round" stroke-linejoin="round" stroke-width="2"/>
   <polyline fill="none" points="659.577,178.463 659.004,180.227 657.504,181.316 655.65,181.316 654.15,180.227 653.577,178.463 654.15,176.7 655.65,175.61 657.504,175.61 659.004,176.7 659.577,178.463" stroke="#d85218" stroke-linecap="round" stroke-linejoin="round" stroke-width="2"/>
   <polyline fill="none" points="718.268,214.548 717.695,216.311 716.195,217.401 714.34,217.401 712.84,216.311 712.268,214.548 712.84,212.784 714.34,211.694 716.195,211.694 717.695,212.784 718.268,214.548" stroke="#d85218" stroke-linecap="round" stroke-linejoin="round" stroke-width="2"/>
   <polyline fill="none" points="776.958,208.518 776.385,210.281 774.885,211.371 773.031,211.371 771.531,210.281 770.958,208.518 771.531,206.754 773.031,205.664 774.885,205.664 776.385,206.754 776.958,208.518" stroke="#d85218" stroke-linecap="round" stroke-linejoin="round" stroke-width="2"/>
   <polyline fill="none" points="835.649,191.417 835.076,193.18 833.576,194.27 831.722,194.27 830.222,193.18 829.649,191.417 830.222,189.654 831.722,188.564 833.576,188.564 835.076,189.654 835.649,191.417" stroke="#d85218" stroke-linecap="round" stroke-linejoin="round" stroke-width="2"/>
   <polyline fill="none" points="894.339,213.377 893.766,215.14 892.266,216.23 890.412,216.23 888.912,215.14 888.339,213.377 888.912,211.614 890.412,210.524 892.266,210.524 893.766,211.614 894.339,213.377" stroke="#d85218" stroke-linecap="round" stroke-linejoin="round" stroke-width="2"/>
   <polyline fill="none" points="953.03,201.442 952.457,203.206 950.957,204.295 949.103,204.295 947.603,203.206 947.03,201.442 947.603,199.679 949.103,198.589 950.957,198.589 952.457,199.679 953.03,201.442" stroke="#d85218" stroke-linecap="round" stroke-linejoin="round" stroke-width="2"/>
   <polyline fill="none" points="1011.72,199.785 1011.15,201.548 1009.65,202.638 1007.79,202.638 1006.29,201.548 1005.72,199.785 1006.29,198.022 1007.79,196.932 1009.65,196.932 1011.15,198.022 1011.72,199.785" stroke="#d85218" stroke-linecap="round" stroke-linejoin="round" stroke-width="2"/>
   <polyline fill="none" points="1070.41,209.047 1069.84,210.81 1068.34,211.9 1066.48,211.9 1064.98,210.81 1064.41,209.047 1064.98,207.283 1066.48,206.193 1068.34,206.193 1069.84,207.283 1070.41,209.047" stroke="#d85218" stroke-linecap="round" stroke-linejoin="round" stroke-width="2"/>
   <polyline fill="none" points="1129.1,200.649 1128.53,202.412 1127.03,203.502 1125.17,203.502 1123.67,202.412 1123.1,200.649 1123.67,198.885 1125.17,197.796 1127.03,197.796 1128.53,198.885 1129.1,200.649" stroke="#d85218" stroke-linecap="round" stroke-linejoin="round" stroke-width="2"/>
   <polyline fill="none" points="1187.79,203.485 1187.22,205.248 1185.72,206.338 1183.86,206.338 1182.36,205.248 1181.79,203.485 1182.36,201.722 1183.86,200.632 1185.72,200.632 1187.22,201.722 1187.79,203.485" stroke="#d85218" stroke-linecap="round" stroke-linejoin="round" stroke-width="2"/>
   <polyline fill="none" points="1246.48,205.494 1245.91,207.258 1244.41,208.348 1242.56,208.348 1241.06,207.258 1240.48,205.494 1241.06,203.731 1242.56,202.641 1244.41,202.641 1245.91,203.731 1246.48,205.494" stroke="#d85218" stroke-linecap="round" stroke-linejoin="round" stroke-width="2"/>
   <polyline fill="none" points="1305.17,202.228 1304.6,203.991 1303.1,205.081 1301.25,205.081 1299.75,203.991 1299.17,202.228 1299.75,200.465 1301.25,199.375 1303.1,199.375 1304.6,200.465 1305.17,202.228" stroke="#d85218" stroke-linecap="round" stroke-linejoin="round" stroke-width="2"/>
  </g>
  <clipPath id="cp001438363">
   <polygon points="0,363 1438,363 1438,0 0,0"/>
  </clipPath>
  <g clip-path="url(#cp001438363)">
   <polygon fill="#ffffff" points="1234.14,78.0158 1294.17,78.0158 1294.17,36.0063 1234.14,36.0063" shape-rendering="crispEdges"/>
   <polyline fill="none" points="1234.14,78.0158 1294.17,78.0158" stroke="#262626" stroke-dasharray="16,0" stroke-linecap="square" stroke-linejoin="miter" stroke-width="0.5"/>
   <polyline fill="none" points="1234.14,36.0063 1294.17,36.0063" stroke="#262626" stroke-dasharray="16,0" stroke-linecap="square" stroke-linejoin="miter" stroke-width="0.5"/>
   <polyline fill="none" points="1234.14,78.0158 1234.14,36.0063" stroke="#262626" stroke-dasharray="16,0" stroke-linecap="square" stroke-linejoin="miter" stroke-width="0.5"/>
   <polyline fill="none" points="1294.17,78.0158 1294.17,36.0063" stroke="#262626" stroke-dasharray="16,0" stroke-linecap="square" stroke-linejoin="miter" stroke-width="0.5"/>
   <polyline fill="none" points="1238.14,47.5095 1254.16,47.5095" stroke="#0071bc" stroke-linecap="butt" stroke-linejoin="round" stroke-width="2"/>
   <polyline fill="none" points="1257.16,47.5095 1256.58,49.2728 1255.08,50.3626 1253.23,50.3626 1251.73,49.2728 1251.16,47.5095 1251.73,45.7461 1253.23,44.6563 1255.08,44.6563 1256.58,45.7461 1257.16,47.5095" stroke="#0071bc" stroke-linecap="round" stroke-linejoin="round" stroke-width="2"/>
   <g font-family="FreeSans" font-size="14.4" font-style="normal" font-weight="normal" transform="translate(1262.16,55.0095) rotate(-0,-0,-7.5)" xml:space="preserve">
    <text fill="rgb(0,0,0)" x="0 8 13 21 " y="-3">h(n)</text>
   </g>
   <polyline fill="none" points="1238.14,66.5126 1254.16,66.5126" stroke="#d85218" stroke-linecap="butt" stroke-linejoin="round" stroke-width="2"/>
   <polyline fill="none" points="1257.16,66.5126 1256.58,68.276 1255.08,69.3658 1253.23,69.3658 1251.73,68.276 1251.16,66.5126 1251.73,64.7493 1253.23,63.6595 1255.08,63.6595 1256.58,64.7493 1257.16,66.5126" stroke="#d85218" stroke-linecap="round" stroke-linejoin="round" stroke-width="2"/>
   <g font-family="FreeSans" font-size="14.4" font-style="normal" font-weight="normal" transform="translate(1262.16,74.0126) rotate(-0,-0,-7.5)" xml:space="preserve">
    <text fill="rgb(0,0,0)" x="0 10 15 23 " y="-3">w(n)</text>
   </g>
  </g>
 </g>
</svg>
